<?xml version="1.0" standalone="no"?>
<!DOCTYPE svg PUBLIC "-//W3C//DTD SVG 20010904//EN"
 "http://www.w3.org/TR/2001/REC-SVG-20010904/DTD/svg10.dtd">
<svg version="1.0" xmlns="http://www.w3.org/2000/svg"
 width="700.000000pt" height="700.000000pt" viewBox="0 0 700.000000 700.000000"
 preserveAspectRatio="xMidYMid meet">
<metadata>
Created by potrace 1.14, written by Peter Selinger 2001-2017
</metadata>
<g transform="translate(0.000000,700.000000) scale(0.100000,-0.100000)"
fill="#000000" stroke="none">
<path d="M140 3490 l0 -3370 3368 2 3367 3 3 3368 2 3367 -3370 0 -3370 0 0
-3370z m3223 2523 c4 -318 7 -986 7 -1485 l0 -908 -548 0 c-302 0 -968 -3
-1480 -7 l-932 -6 0 1491 0 1492 1473 0 1474 0 6 -577z m3237 -2518 l0 -3095
-1473 0 -1474 0 -6 1802 c-4 991 -7 2383 -7 3095 l0 1293 1480 0 1480 0 0
-3095z m-3230 -1018 c0 -481 3 -1144 7 -1475 l6 -602 -1486 0 -1487 0 0 1470
0 1470 983 3 c540 1 1206 3 1480 5 l497 2 0 -873z"/>
<path d="M1727 5903 c-4 -3 -7 -154 -7 -335 l0 -328 -335 0 -336 0 3 -132 3
-133 333 -3 332 -2 0 -325 0 -325 130 0 130 0 0 325 0 325 330 0 330 0 0 135
0 135 -330 0 -330 0 0 335 0 335 -123 0 c-68 0 -127 -3 -130 -7z"/>
<path d="M4330 3820 l0 -130 795 0 795 0 0 130 0 130 -795 0 -795 0 0 -130z"/>
<path d="M4330 3165 l0 -125 795 0 795 0 0 125 0 125 -795 0 -795 0 0 -125z"/>
<path d="M1050 1880 l0 -130 795 0 795 0 0 130 0 130 -795 0 -795 0 0 -130z"/>
</g>
</svg>
